<svg xmlns="http://www.w3.org/2000/svg" viewBox="0 0 450 128">
  <!-- Cookie base -->
  <circle cx="64" cy="64" r="60" fill="#C6823F"/>
  <!-- Cookie edge highlights -->
  <circle cx="64" cy="64" r="56" fill="#DDA163"/>
  <!-- Bite mark -->
  <path d="M64,8 A56,56 0 0,1 114,43 L64,64 Z" fill="#C6823F"/>
  <path d="M64,12 A52,52 0 0,1 110,45 L64,64 Z" fill="#DDA163"/>
  <!-- Chocolate chips -->
  <circle cx="37" cy="37" r="8" fill="#603311"/>
  <circle cx="86" cy="40" r="9" fill="#603311"/>
  <circle cx="40" cy="86" r="8" fill="#603311"/>
  <circle cx="90" cy="78" r="7" fill="#603311"/>
  <circle cx="65" cy="98" r="8" fill="#603311"/>
  <circle cx="64" cy="64" r="9" fill="#603311"/>
  <circle cx="32" cy="62" r="7" fill="#603311"/>
  <circle cx="112" cy="64" r="6" fill="#603311"/>
  <!-- Cookie crumb texture - subtle spots -->
  <circle cx="50" cy="25" r="2" fill="#B67736" opacity="0.8"/>
  <circle cx="78" cy="60" r="3" fill="#B67736" opacity="0.8"/>
  <circle cx="22" cy="48" r="2.5" fill="#B67736" opacity="0.8"/>
  <circle cx="55" cy="76" r="2" fill="#B67736" opacity="0.8"/>
  <circle cx="103" cy="50" r="2" fill="#B67736" opacity="0.8"/>
  <circle cx="63" cy="40" r="1.5" fill="#B67736" opacity="0.8"/>
  <circle cx="95" cy="95" r="3" fill="#B67736" opacity="0.8"/>
  <circle cx="27" cy="90" r="2" fill="#B67736" opacity="0.8"/>
  <circle cx="50" cy="110" r="2.5" fill="#B67736" opacity="0.8"/>
  <circle cx="110" cy="30" r="2" fill="#B67736" opacity="0.8"/>
  <circle cx="18" cy="70" r="2" fill="#B67736" opacity="0.8"/>
  <!-- Light spots on chocolate chips -->
  <circle cx="35" cy="35" r="2" fill="#7A4922" opacity="0.9"/>
  <circle cx="84" cy="38" r="2.5" fill="#7A4922" opacity="0.9"/>
  <circle cx="38" cy="84" r="2" fill="#7A4922" opacity="0.9"/>
  <circle cx="88" cy="76" r="2" fill="#7A4922" opacity="0.9"/>
  <circle cx="63" cy="96" r="2" fill="#7A4922" opacity="0.9"/>
  <circle cx="62" cy="62" r="2.5" fill="#7A4922" opacity="0.9"/>
  <circle cx="30" cy="60" r="2" fill="#7A4922" opacity="0.9"/>
  <circle cx="110" cy="62" r="1.5" fill="#7A4922" opacity="0.9"/>
  <!-- Snack Money text in black, positioned next to logo -->
  <text x="150" y="75" font-family="'Futura', 'Trebuchet MS', 'Verdana', sans-serif" font-size="40" fill="#000" font-weight="bold">Snack Money</text>
</svg>
